# xmcd
#
# Track frame offsets: 
#        150
#        18168
#        37824
#        55078
#        76854
#        92626
#        108871
#        136224
#        158152
#        174489
#        188963
#        211134
#        229263
#
# Disc length: 3160 seconds
#
# Revision: 0
# Processed by: cddbd v1.5.2PL0 Copyright (c) Steve Scherf et al.
# Submitted via: ExactAudioCopy v0.90b4
#
DISCID=950c560d
DTITLE=Becki Sue and her Big Rockin' Daddies! - Big Rockin' Boogie
DYEAR=2010
DGENRE=Left Coast Blues
TTITLE0=Rocket In My Pocket
TTITLE1=Mr. Lies
TTITLE2=Fatboy Blues
TTITLE3=Big Rockin' Boogie
TTITLE4=Can't Stop These Teardrops
TTITLE5=Meat On Toast
TTITLE6=Neighbor Tend To Your Business
TTITLE7=What Have I Done Wrong
TTITLE8=How Much Longer
TTITLE9=All My Money
TTITLE10=I'd Walk A Mile
TTITLE11=Hillbilly Blues Ball
TTITLE12=Where My Money
EXTD=
EXTT0=
EXTT1=
EXTT2=
EXTT3=
EXTT4=
EXTT5=
EXTT6=
EXTT7=
EXTT8=
EXTT9=
EXTT10=
EXTT11=
EXTT12=
PLAYORDER=
